<?xml version="1.0" encoding="utf-8"?>
<!-- Generator: Adobe Illustrator 24.1.1, SVG Export Plug-In . SVG Version: 6.00 Build 0)  -->
<svg version="1.1" id="Capa_1" xmlns="http://www.w3.org/2000/svg" xmlns:xlink="http://www.w3.org/1999/xlink" x="0px" y="0px"
	 viewBox="0 0 300 300" style="enable-background:new 0 0 300 300;" xml:space="preserve">
<style type="text/css">
	.st0{fill:#FCC00E;}
	.st1{fill:#FFFFFF;}
</style>
<circle class="st0" cx="150.47" cy="150.39" r="150"/>
<path class="st1" d="M261.28,84.15c-0.05-0.45-0.14-0.89-0.27-1.32v-8.74h-38.76v9.85c0,0.03-0.02,0.05-0.02,0.08l-92.75,0.17
	c-1.98-0.14-3.99-0.21-6.01-0.21c-46.24,0.05-83.69,37.58-83.64,83.82s37.58,83.69,83.82,83.64s83.69-37.58,83.64-83.82
	c-0.01-6.01-0.66-12.01-1.95-17.88l16.88,0v0.22c0,0.04,0.02,0.08,0.02,0.12v7.45h7.29c0.11,0,0.21,0.06,0.32,0.06h23.78
	c0.11,0,0.21-0.06,0.32-0.06h7.05v-6.24c0.13-0.43,0.22-0.88,0.27-1.32V84.15z M123.49,213.47c-25.22,0-45.67-20.45-45.67-45.67
	s20.45-45.67,45.67-45.67s45.67,20.45,45.67,45.67c0,0,0,0,0,0C169.16,193.02,148.71,213.47,123.49,213.47z"/>
<path class="st1" d="M123.08,160.08c-4.21,0-7.62,3.41-7.62,7.62s3.41,7.62,7.62,7.62c4.21,0,7.62-3.41,7.62-7.62c0,0,0,0,0,0
	C130.7,163.49,127.29,160.08,123.08,160.08z M123.08,171.68c-2.2,0-3.99-1.78-3.99-3.99c0-2.2,1.78-3.99,3.99-3.99
	c2.2,0,3.99,1.78,3.99,3.99l0,0C127.07,169.9,125.28,171.68,123.08,171.68z"/>
<path class="st1" d="M154.02,179.89c-2.67-1.66-13.12-8.19-13.12-8.19l-0.31,0.26c0.1-0.4,0.18-0.79,0.25-1.2
	c3.92-2.36,13.52-8.14,16.1-9.69c3.27-1.97,2.14-8.62-1.33-14.39c-3.47-5.77-4.74-2.22-7.43-0.6c-2.69,1.62-13.25,7.98-13.25,7.98
	l0.03,0.13c-0.03-0.03-0.06-0.05-0.09-0.08v-18.84c0-3.82-6.28-6.28-13.02-6.28s-4.35,2.92-4.35,6.06v15.47l0.14,0.04
	c-0.15,0.05-0.3,0.09-0.44,0.14c-3.94-2.27-13.69-7.9-16.31-9.42c-3.3-1.91-8.58,2.3-11.95,8.13s0.35,5.22,3.07,6.79
	c2.72,1.57,13.4,7.74,13.4,7.74l0.01-0.01c-0.02,0.1-0.04,0.19-0.06,0.29c-4,2.27-13.69,7.78-16.3,9.26
	c-3.32,1.89-2.36,8.57,0.97,14.42c3.33,5.85,4.68,2.34,7.42,0.78s13.45-7.64,13.45-7.64l-0.02-0.09c0.13,0.12,0.27,0.21,0.4,0.33
	c-0.01,4.54-0.03,15.81-0.03,18.83c-0.01,3.81,6.27,6.3,13,6.31c6.73,0.01,4.35-2.91,4.36-6.05c0.01-3.14,0.03-15.47,0.03-15.47
	l-0.14-0.04c0.15-0.05,0.3-0.09,0.45-0.14c4.02,2.51,13.19,8.23,15.7,9.8c3.24,2.02,8.66-2,12.22-7.71S156.68,181.56,154.02,179.89z
	 M112.01,169.11h-2.73v-2.73h2.73V169.11z M131.91,156.95l1.93,1.93l-1.93,1.93l-1.93-1.93L131.91,156.95z M121.72,153.89h2.73v2.73
	h-2.73V153.89z M114.28,156.99l1.93,1.93l-1.93,1.93l-1.93-1.93L114.28,156.99z M114.32,178.47l-1.93-1.93l1.93-1.93l1.93,1.93
	L114.32,178.47z M124.5,181.54h-2.73v-2.73h2.73V181.54z M123.08,177.23c-5.27,0-9.54-4.27-9.54-9.54s4.27-9.54,9.54-9.54
	s9.54,4.27,9.54,9.54c0,0,0,0,0,0C132.62,172.96,128.35,177.23,123.08,177.23C123.08,177.23,123.08,177.23,123.08,177.23z
	 M131.94,178.44l-1.93-1.93l1.93-1.93l1.93,1.93L131.94,178.44z M136.94,169.05h-2.73v-2.73h2.73V169.05z"/>
</svg>
